<?xml version="1.0"?>
<svg xmlns="http://www.w3.org/2000/svg" height="512px" viewBox="0 0 511 511.99943" width="512px" class=""><g><path d="m497.496094 401.667969h-136.554688c18.367188-25.875 33.394532-51.488281 44.761719-76.355469 17.074219-37.351562 25.9375-73.207031 26.414063-106.632812.027343-.945313.046874-1.894532.046874-2.847657v-200.828125c0-6.371094-4.023437-12.046875-10.035156-14.15625-6.011718-2.113281-12.699218-.191406-16.675781 4.785156l-32.664063 40.828126c-30.453124-30.089844-71.097656-46.45703175-116.289062-46.45703175-45.195312 0-85.84375 16.36718775-116.292969 46.45703175l-32.660156-40.828126c-3.980469-4.976562-10.667969-6.890624-16.679687-4.785156-6.011719 2.109375-10.035157 7.785156-10.035157 14.15625v200.828125c0 .953125.019531 1.902344.046875 2.847657.476563 33.425781 9.339844 69.28125 26.414063 106.632812 11.367187 24.867188 26.394531 50.480469 44.761719 76.355469h-136.554688c-8.285156 0-15 6.714843-15 14.996093 0 8.285157 6.714844 15 15 15h481.996094c8.285156 0 15-6.714843 15-15 0-8.28125-6.714844-14.996093-15-14.996093zm-321.332032-120.5c-36.023437 0-65.332031-29.308594-65.332031-65.335938 0-36.023437 29.308594-65.332031 65.332031-65.332031 36.027344 0 65.335938 29.308594 65.335938 65.332031 0 36.027344-29.308594 65.335938-65.335938 65.335938zm80.335938 47.089843-30.921875-30.921874c12.464844-7.585938 23.058594-17.945313 30.921875-30.21875 7.859375 12.273437 18.457031 22.632812 30.917969 30.21875zm15-112.425781c0-36.023437 29.308594-65.332031 65.328125-65.332031 36.027344 0 65.335937 29.308594 65.335937 65.332031 0 36.027344-29.308593 65.335938-65.335937 65.335938-36.019531 0-65.328125-29.308594-65.328125-65.335938zm0 0" data-original="#000000" class="active-path" data-old_color="#000000" fill="#FFFFFF"/><path d="m176.167969 200.835938c-3.949219 0-7.816407 1.601562-10.609375 4.390624-2.789063 2.789063-4.390625 6.660157-4.390625 10.609376 0 3.949218 1.601562 7.808593 4.390625 10.601562 2.792968 2.796875 6.660156 4.398438 10.609375 4.398438 3.953125 0 7.8125-1.601563 10.601562-4.398438 2.800781-2.792969 4.398438-6.660156 4.398438-10.601562 0-3.949219-1.597657-7.808594-4.398438-10.609376-2.789062-2.789062-6.648437-4.390624-10.601562-4.390624zm0 0" data-original="#000000" class="active-path" data-old_color="#000000" fill="#FFFFFF"/><path d="m336.828125 200.835938c-3.949219 0-7.808594 1.601562-10.597656 4.390624-2.800781 2.789063-4.402344 6.660157-4.402344 10.609376 0 3.949218 1.601563 7.808593 4.402344 10.601562 2.789062 2.796875 6.648437 4.398438 10.597656 4.398438 3.953125 0 7.820313-1.601563 10.609375-4.398438 2.792969-2.792969 4.390625-6.648438 4.390625-10.601562 0-3.949219-1.597656-7.820313-4.390625-10.609376-2.789062-2.789062-6.65625-4.390624-10.609375-4.390624zm0 0" data-original="#000000" class="active-path" data-old_color="#000000" fill="#FFFFFF"/><path d="m246.621094 508.289062c2.824218 2.472657 6.351562 3.710938 9.878906 3.710938 3.523438 0 7.046875-1.238281 9.875-3.710938 1.171875-1.027343 20.824219-18.328124 46.3125-46.625h-112.378906c25.488281 28.296876 45.144531 45.601563 46.3125 46.625zm0 0" data-original="#000000" class="active-path" data-old_color="#000000" fill="#FFFFFF"/></g> </svg>
